PathFileType	4	(X/Y/Z)	D:\TRACE\v60_Jaco2_6-2-23\BothDRS_Motion3_3-v60.trc
DataRate	CameraRate	NumFrames	NumMarkers	Units	OrigDataRate	OrigDataStartFrame	OrigNumFrames
100.00	100.00	      14	9	mm	100.00	5251	      7000
Frame#	Time	front left toe			Front right toe			aft left toe			aft right toe			Arm			FL body			FR body			AL Body			AR Body			
		X1	Y1	Z1	X2	Y2	Z2	X3	Y3	Z3	X4	Y4	Z4	X5	Y5	Z5	X6	Y6	Z6	X7	Y7	Z7	X8	Y8	Z8	X9	Y9	Z9	

5251	52.500	-203.15427	63.85178	-237.66985	203.03999	6.21147	-258.21249	-166.35353	25.04337	370.25107	175.90939	70.67678	379.57574	56.60240	1099.56116	-582.67487	-75.07994	502.00369	-418.36661	83.69562	496.91776	-419.93619	-58.67315	578.72345	522.76556	92.64754	564.45233	521.86517	
5252	52.510	-205.15817	55.51209	-237.32304	201.55717	5.40272	-258.67578	-166.27570	25.09727	370.11896	173.28751	62.03470	380.57318	57.28971	1099.22253	-581.69086	-75.63194	501.68094	-418.21970	83.37482	496.33688	-419.46945	-60.20053	578.53510	523.11627	90.88107	564.10779	522.28961	
5253	52.520	-206.55864	46.40833	-236.09479	201.64262	5.12279	-258.68289	-166.15985	25.09019	370.07379	170.91673	53.18209	381.27725	58.58868	1098.97009	-580.53711	-76.12722	501.57553	-418.05786	82.75095	495.86041	-419.02853	-61.19766	578.39063	523.41083	90.42846	563.55804	522.76471	
5254	52.530	-207.86133	37.82508	-235.00256	201.77663	5.07090	-258.59955	-165.42267	24.67570	369.92987	169.32629	44.86821	381.79721	59.61880	1098.77283	-579.45190	-76.36738	501.38190	-417.84656	82.64713	495.37668	-418.52902	-62.54540	578.35913	523.56201	88.49342	563.27740	523.06305	
5255	52.540	-209.39980	30.36794	-234.44455	201.95071	4.90623	-258.62881	-165.96510	25.24169	369.95148	167.06944	37.11155	382.17676	60.66483	1098.69592	-578.51050	-76.95031	501.43317	-417.67133	81.97059	495.16397	-418.21725	-63.80173	578.17432	523.69061	87.17433	562.80884	523.36212	
5256	52.550	-210.71136	23.66427	-234.57745	202.14833	4.77063	-258.83133	-165.07253	25.04085	369.80890	165.98407	30.18825	382.64487	61.76376	1098.68030	-577.60431	-77.50161	501.50400	-417.69617	81.44193	494.95523	-418.07333	-65.21674	578.16602	523.86188	86.17852	562.67175	523.78577	
5257	52.560	-211.87180	17.84591	-234.98697	202.00467	4.48953	-259.06583	-166.14388	25.68603	369.76544	165.75217	27.76470	380.68869	62.93772	1098.67285	-576.88232	-78.00093	501.51401	-417.68652	81.02767	494.51096	-417.69449	-66.33382	578.03827	523.94592	84.64635	562.09302	524.11346	
5258	52.570	-213.22847	11.79630	-235.37518	202.25662	4.45283	-259.15533	-166.06255	25.83897	369.72052	166.07860	26.17427	381.44965	63.85390	1098.52466	-576.16315	-78.07836	500.97348	-417.24509	80.47626	494.15631	-417.24478	-68.29021	578.40070	524.04230	83.20590	562.25739	524.45056	
5259	52.580	-213.58450	8.18345	-236.50354	202.40071	4.20699	-259.02167	-166.40115	26.28754	369.61691	166.73904	27.23577	379.95078	64.54678	1098.39124	-575.80402	-78.56768	500.25485	-417.01917	80.24644	493.59778	-416.80780	-69.89474	579.51202	524.12500	81.79504	563.62476	524.49280	
5260	52.590	-214.78130	8.70035	-237.66171	202.55138	4.28824	-258.61362	-166.54439	26.47468	369.99713	166.48308	27.98666	381.16614	64.99190	1098.42053	-575.96075	-78.68882	500.28802	-416.81030	80.25964	493.33218	-416.32892	-71.42590	580.74323	524.37787	80.02301	564.89185	525.11023	
5261	52.600	-214.79593	6.56556	-237.70898	203.76750	5.42493	-258.72113	-166.47856	27.81119	369.25159	166.26581	28.82095	380.99857	65.25253	1098.12415	-576.58917	-78.58102	501.31656	-416.46997	80.07382	494.04272	-415.95786	-72.83257	581.67096	524.56116	78.83357	565.54980	525.71320	
5262	52.610	-214.44797	4.92047	-236.66481	199.96898	7.90809	-258.18509	-166.57506	30.66007	369.54630	166.22340	27.94271	382.03387	65.29256	1097.95935	-577.16339	-78.88641	502.92236	-416.80887	80.16543	495.31845	-415.67386	-74.73826	581.59668	524.79480	77.12451	565.34851	525.95825	
5263	52.620	-214.32225	5.19040	-237.20604	195.85220	11.48792	-254.59845	-165.14066	34.04069	371.60190	166.32896	28.00305	380.41940	65.45687	1097.70740	-577.32727	-78.77130	504.02228	-416.76657	79.84728	496.69968	-415.65295	-76.17089	581.22314	524.74463	75.33762	565.24689	526.27753	
5264	52.630	-214.19162	5.22817	-238.28569	193.03256	17.77676	-252.23213	-160.67697	40.69962	373.11255	166.42162	28.29650	380.75464	65.65852	1098.10217	-576.80219	-78.74655	504.47699	-416.80518	79.90397	496.96924	-415.46692	-77.49400	581.38922	524.73865	74.09940	565.34534	526.42902	
